<?xml version="1.0" encoding="utf-8"?>
<!-- Generator: Adobe Illustrator 24.3.0, SVG Export Plug-In . SVG Version: 6.00 Build 0)  -->
<svg version="1.1" id="Layer_1" xmlns="http://www.w3.org/2000/svg" xmlns:xlink="http://www.w3.org/1999/xlink" x="0px" y="0px"
	 viewBox="0 0 100 100" enable-background="new 0 0 100 100" xml:space="preserve">
<g>
	<g>
		<path fill="#217EBA" d="M50,24.77c-9.657,0-17.485,7.829-17.485,17.486c0,9.657,7.928,28.442,17.585,28.442
			c9.657,0,17.386-18.785,17.386-28.442C67.486,32.599,59.657,24.77,50,24.77z M50,50.043c-5.479,0-9.921-4.442-9.921-9.921
			c0-5.478,4.442-9.921,9.921-9.921c5.479,0,9.921,4.442,9.921,9.921C59.92,45.602,55.479,50.043,50,50.043z"/>
		<path fill="#3B96D2" d="M49.726,50.039c-5.323-0.178-9.584-4.546-9.584-9.912c0-5.366,4.261-9.734,9.584-9.911v-5.437
			c-9.502,0.179-17.149,7.937-17.149,17.481c0,9.511,7.691,27.877,17.149,28.429V50.039z"/>
	</g>
	<path fill="#DC7422" d="M56.415,73.956c0,0.704-2.872,1.274-6.415,1.274c-3.542,0-6.414-0.57-6.414-1.274s2.872-1.274,6.414-1.274
		C53.543,72.681,56.415,73.252,56.415,73.956z"/>
</g>
</svg>
